<svg width="29" height="29" viewBox="0 0 29 29" fill="none" xmlns="http://www.w3.org/2000/svg">
<path d="M21.4236 12.0742H15.2986C14.8203 12.0742 14.4236 11.6776 14.4236 11.1992C14.4236 10.7209 14.8203 10.3242 15.2986 10.3242H21.4236C21.9019 10.3242 22.2986 10.7209 22.2986 11.1992C22.2986 11.6776 21.9136 12.0742 21.4236 12.0742Z" fill="#333845"/>
<path d="M9.17311 12.96C8.95144 12.96 8.72978 12.8783 8.55478 12.7033L7.67978 11.8283C7.34144 11.49 7.34144 10.93 7.67978 10.5916C8.01811 10.2533 8.57811 10.2533 8.91644 10.5916L9.17311 10.8483L11.1798 8.84164C11.5181 8.50331 12.0781 8.50331 12.4164 8.84164C12.7548 9.17997 12.7548 9.73997 12.4164 10.0783L9.79144 12.7033C9.62811 12.8667 9.40644 12.96 9.17311 12.96Z" fill="#333845"/>
<path d="M21.4236 20.2402H15.2986C14.8203 20.2402 14.4236 19.8436 14.4236 19.3652C14.4236 18.8869 14.8203 18.4902 15.2986 18.4902H21.4236C21.9019 18.4902 22.2986 18.8869 22.2986 19.3652C22.2986 19.8436 21.9136 20.2402 21.4236 20.2402Z" fill="#333845"/>
<path d="M9.17311 21.1279C8.95144 21.1279 8.72978 21.0463 8.55478 20.8713L7.67978 19.9963C7.34144 19.6579 7.34144 19.0979 7.67978 18.7596C8.01811 18.4213 8.57811 18.4213 8.91644 18.7596L9.17311 19.0163L11.1798 17.0096C11.5181 16.6713 12.0781 16.6713 12.4164 17.0096C12.7548 17.3479 12.7548 17.9079 12.4164 18.2463L9.79144 20.8713C9.62811 21.0346 9.40644 21.1279 9.17311 21.1279Z" fill="#333845"/>
<path d="M18.3669 27.3919H11.3669C5.03186 27.3919 2.3252 24.6853 2.3252 18.3503V11.3503C2.3252 5.01526 5.03186 2.30859 11.3669 2.30859H18.3669C24.7019 2.30859 27.4085 5.01526 27.4085 11.3503V18.3503C27.4085 24.6853 24.7019 27.3919 18.3669 27.3919ZM11.3669 4.05859C5.98853 4.05859 4.0752 5.97193 4.0752 11.3503V18.3503C4.0752 23.7286 5.98853 25.6419 11.3669 25.6419H18.3669C23.7452 25.6419 25.6585 23.7286 25.6585 18.3503V11.3503C25.6585 5.97193 23.7452 4.05859 18.3669 4.05859H11.3669Z" fill="#333845"/>
</svg>
