<svg width="26" height="25" viewBox="0 0 26 25" fill="none" xmlns="http://www.w3.org/2000/svg">
<g clip-path="url(#clip0_1_10080)">
<path d="M20.9729 2.74079H17.9464C17.7795 2.18037 17.4357 1.68845 16.9661 1.33795C16.4966 0.987454 15.9261 0.797036 15.3394 0.794922H11.4331C10.8464 0.797036 10.2759 0.987454 9.80631 1.33795C9.33673 1.68845 8.99299 2.18037 8.82607 2.74079H5.79951C5.32542 2.7414 4.87092 2.92931 4.53569 3.2633C4.20046 3.59728 4.01185 4.05009 4.01123 4.52242V22.3637C4.01185 22.836 4.20046 23.2888 4.53569 23.6228C4.87092 23.9568 5.32542 24.1447 5.79951 24.1453H20.9729C21.447 24.1447 21.9015 23.9568 22.2368 23.6228C22.572 23.2888 22.7606 22.836 22.7612 22.3637V4.52242C22.7606 4.05009 22.572 3.59728 22.2368 3.2633C21.9015 2.92931 21.447 2.7414 20.9729 2.74079ZM11.4331 2.35161H15.3394C15.6502 2.35161 15.9482 2.47462 16.168 2.69357C16.3878 2.91252 16.5112 3.20949 16.5112 3.51913C16.5112 3.82878 16.3878 4.12574 16.168 4.34469C15.9482 4.56364 15.6502 4.68665 15.3394 4.68665H11.4331C11.1223 4.68665 10.8242 4.56364 10.6045 4.34469C10.3847 4.12574 10.2612 3.82878 10.2612 3.51913C10.2612 3.20949 10.3847 2.91252 10.6045 2.69357C10.8242 2.47462 11.1223 2.35161 11.4331 2.35161ZM21.1987 22.3637C21.1985 22.4233 21.1747 22.4804 21.1324 22.5225C21.0901 22.5646 21.0328 22.5884 20.9729 22.5886H5.79951C5.73969 22.5884 5.68239 22.5646 5.64009 22.5225C5.59779 22.4804 5.57394 22.4233 5.57373 22.3637V4.52242C5.57394 4.46282 5.59779 4.40573 5.64009 4.36359C5.68239 4.32145 5.73969 4.29768 5.79951 4.29748H8.82607C8.99299 4.8579 9.33673 5.34982 9.80631 5.70031C10.2759 6.05081 10.8464 6.24123 11.4331 6.24334H15.3394C15.9261 6.24123 16.4966 6.05081 16.9661 5.70031C17.4357 5.34982 17.7795 4.8579 17.9464 4.29748H20.9729C21.0328 4.29768 21.0901 4.32145 21.1324 4.36359C21.1747 4.40573 21.1985 4.46282 21.1987 4.52242V22.3637Z" fill="#333845"/>
<path d="M18.0737 17.1406H8.69873C8.49153 17.1406 8.29282 17.2226 8.1463 17.3686C7.99979 17.5146 7.91748 17.7125 7.91748 17.919C7.91748 18.1254 7.99979 18.3234 8.1463 18.4693C8.29282 18.6153 8.49153 18.6973 8.69873 18.6973H18.0737C18.2809 18.6973 18.4796 18.6153 18.6262 18.4693C18.7727 18.3234 18.855 18.1254 18.855 17.919C18.855 17.7125 18.7727 17.5146 18.6262 17.3686C18.4796 17.2226 18.2809 17.1406 18.0737 17.1406Z" fill="#333845"/>
<path d="M18.0737 13.248H8.69873C8.49153 13.248 8.29282 13.3301 8.1463 13.476C7.99979 13.622 7.91748 13.82 7.91748 14.0264C7.91748 14.2328 7.99979 14.4308 8.1463 14.5768C8.29282 14.7227 8.49153 14.8047 8.69873 14.8047H18.0737C18.2809 14.8047 18.4796 14.7227 18.6262 14.5768C18.7727 14.4308 18.855 14.2328 18.855 14.0264C18.855 13.82 18.7727 13.622 18.6262 13.476C18.4796 13.3301 18.2809 13.248 18.0737 13.248Z" fill="#333845"/>
<path d="M18.0737 9.35742H8.69873C8.49153 9.35742 8.29282 9.43943 8.1463 9.58539C7.99979 9.73136 7.91748 9.92934 7.91748 10.1358C7.91748 10.3422 7.99979 10.5402 8.1463 10.6861C8.29282 10.8321 8.49153 10.9141 8.69873 10.9141H18.0737C18.2809 10.9141 18.4796 10.8321 18.6262 10.6861C18.7727 10.5402 18.855 10.3422 18.855 10.1358C18.855 9.92934 18.7727 9.73136 18.6262 9.58539C18.4796 9.43943 18.2809 9.35742 18.0737 9.35742Z" fill="#333845"/>
</g>
<defs>
<clipPath id="clip0_1_10080">
<rect width="25" height="24.9071" fill="white" transform="translate(0.88623 0.015625)"/>
</clipPath>
</defs>
</svg>
