<svg width="26" height="26" viewBox="0 0 26 26" fill="none" xmlns="http://www.w3.org/2000/svg">
<g clip-path="url(#clip0_1_10072)">
<path d="M1.66748 1.01367V24.364H25.105V1.01367H1.66748ZM14.2839 2.57036L12.3308 4.12705H3.22998V2.57036H14.2839ZM23.5425 22.8074H3.22998V5.68375H12.8792L16.7854 2.57036H23.5425V22.8074Z" fill="#333845"/>
<path d="M17.2925 10.3536V19.6938H15.73V7.24023H11.0425V19.6938H9.47998V14.2453H4.79248V19.6938H4.01123V21.2505H22.7612V19.6938H21.98V10.3536H17.2925ZM6.35498 19.6938V15.802H7.91748V19.6938H6.35498ZM12.605 19.6938V8.79693H14.1675V19.6938H12.605ZM18.855 19.6938V11.9103H20.4175V19.6938H18.855Z" fill="#333845"/>
</g>
<defs>
<clipPath id="clip0_1_10072">
<rect width="25" height="24.9071" fill="white" transform="translate(0.88623 0.234375)"/>
</clipPath>
</defs>
</svg>
