<svg width="24" height="24" viewBox="0 0 24 24" fill="none" xmlns="http://www.w3.org/2000/svg">
<g clip-path="url(#clip0_1_10064)">
<path d="M20.9746 22.429H3.79789C3.21653 22.4283 2.65919 22.1978 2.24811 21.7883C1.83702 21.3787 1.60574 20.8235 1.60498 20.2443V9.57971C1.60527 9.23195 1.68874 8.88927 1.84849 8.58006C2.00823 8.27085 2.23964 8.00402 2.52354 7.80169L11.1119 1.68997C11.4838 1.42541 11.9293 1.2832 12.3862 1.2832C12.8432 1.2832 13.2887 1.42541 13.6606 1.68997L22.2489 7.80169C22.5328 8.00402 22.7642 8.27085 22.924 8.58006C23.0837 8.88927 23.1672 9.23195 23.1675 9.57971V20.2443C23.1667 20.8235 22.9354 21.3787 22.5244 21.7883C22.1133 22.1978 21.5559 22.4283 20.9746 22.429ZM12.3862 2.71539C12.2288 2.71536 12.0753 2.76416 11.9471 2.85503L3.35873 8.96675C3.26097 9.03641 3.18128 9.12829 3.12628 9.23477C3.07128 9.34125 3.04256 9.45925 3.04248 9.579V20.2443C3.04267 20.4438 3.12232 20.6351 3.26394 20.7762C3.40557 20.9173 3.5976 20.9967 3.79789 20.9969H20.976C21.1761 20.9963 21.3677 20.9168 21.509 20.7757C21.6503 20.6347 21.7298 20.4436 21.73 20.2443V9.57971C21.7299 9.45997 21.7012 9.34196 21.6462 9.23549C21.5912 9.12901 21.5115 9.03713 21.4137 8.96747L12.8254 2.85574C12.6973 2.76436 12.5437 2.71528 12.3862 2.71539Z" fill="#333845"/>
<path d="M15.98 18.848H8.79248C8.60186 18.848 8.41904 18.7725 8.28425 18.6382C8.14946 18.5039 8.07373 18.3218 8.07373 18.1319V15.9837C8.07373 15.7937 8.14946 15.6116 8.28425 15.4773C8.41904 15.343 8.60186 15.2676 8.79248 15.2676C8.9831 15.2676 9.16592 15.343 9.30071 15.4773C9.43551 15.6116 9.51123 15.7937 9.51123 15.9837V17.4158H15.2612V15.9837C15.2612 15.7937 15.337 15.6116 15.4717 15.4773C15.6065 15.343 15.7894 15.2676 15.98 15.2676C16.1706 15.2676 16.3534 15.343 16.4882 15.4773C16.623 15.6116 16.6987 15.7937 16.6987 15.9837V18.1319C16.6987 18.3218 16.623 18.5039 16.4882 18.6382C16.3534 18.7725 16.1706 18.848 15.98 18.848Z" fill="#333845"/>
</g>
<defs>
<clipPath id="clip0_1_10064">
<rect width="23" height="22.9145" fill="white" transform="translate(0.88623 0.230469)"/>
</clipPath>
</defs>
</svg>
