<svg width="29" height="29" viewBox="0 0 29 29" fill="none" xmlns="http://www.w3.org/2000/svg">
<g clip-path="url(#clip0_1_9710)">
<path d="M14.8669 13.1562C16.6762 13.1562 18.1482 11.6843 18.1482 9.875C18.1482 8.06572 16.6762 6.59375 14.8669 6.59375C13.0577 6.59375 11.5857 8.06572 11.5857 9.875C11.5857 11.6843 13.0577 13.1562 14.8669 13.1562ZM14.8669 8.78125C15.47 8.78125 15.9607 9.27191 15.9607 9.875C15.9607 10.4781 15.47 10.9688 14.8669 10.9688C14.2638 10.9688 13.7732 10.4781 13.7732 9.875C13.7732 9.27191 14.2638 8.78125 14.8669 8.78125Z" fill="#333845"/>
<path d="M24.7107 9.875C24.7107 4.44716 20.2948 0.03125 14.8669 0.03125C9.4391 0.03125 5.02319 4.44716 5.02319 9.875C5.02319 12.0223 5.70252 14.063 6.98779 15.7765L12.241 22.7802C12.858 23.6027 13.8397 24.0938 14.8669 24.0938C15.8942 24.0938 16.8759 23.6027 17.493 22.7801L22.7461 15.7765C24.0314 14.063 24.7107 12.0223 24.7107 9.875ZM20.9962 14.4639L15.7431 21.4674C15.5339 21.7463 15.2145 21.9062 14.8669 21.9062C14.5194 21.9062 14.2 21.7463 13.9908 21.4675L8.73773 14.4639C7.73876 13.1321 7.21069 11.5452 7.21069 9.875C7.21069 5.65334 10.6453 2.21875 14.8669 2.21875C19.0886 2.21875 22.5232 5.65334 22.5232 9.875C22.5232 11.5452 21.9951 13.1321 20.9962 14.4639Z" fill="#333845"/>
<path d="M20.3357 26.9375C20.3357 26.3334 19.846 25.8438 19.2419 25.8438H10.4919C9.88787 25.8438 9.39819 26.3334 9.39819 26.9375C9.39819 27.5416 9.88787 28.0312 10.4919 28.0312H19.2419C19.846 28.0312 20.3357 27.5416 20.3357 26.9375Z" fill="#333845"/>
</g>
<defs>
<clipPath id="clip0_1_9710">
<rect width="28" height="28" fill="white" transform="translate(0.866943 0.03125)"/>
</clipPath>
</defs>
</svg>
