<svg width="22" height="23" viewBox="0 0 22 23" fill="none" xmlns="http://www.w3.org/2000/svg">
<path fill-rule="evenodd" clip-rule="evenodd" d="M3.30005 6.00039C3.30005 5.70865 3.41594 5.42886 3.62223 5.22257C3.82852 5.01629 4.10831 4.90039 4.40005 4.90039H17.6C17.8918 4.90039 18.1716 5.01629 18.3779 5.22257C18.5841 5.42886 18.7 5.70865 18.7 6.00039C18.7 6.29213 18.5841 6.57192 18.3779 6.77821C18.1716 6.98449 17.8918 7.10039 17.6 7.10039H4.40005C4.10831 7.10039 3.82852 6.98449 3.62223 6.77821C3.41594 6.57192 3.30005 6.29213 3.30005 6.00039ZM3.30005 11.5004C3.30005 11.2086 3.41594 10.9289 3.62223 10.7226C3.82852 10.5163 4.10831 10.4004 4.40005 10.4004H11C11.2918 10.4004 11.5716 10.5163 11.7779 10.7226C11.9841 10.9289 12.1 11.2086 12.1 11.5004C12.1 11.7921 11.9841 12.072 11.7779 12.2782C11.5716 12.4845 11.2918 12.6004 11 12.6004H4.40005C4.10831 12.6004 3.82852 12.4845 3.62223 12.2782C3.41594 12.072 3.30005 11.7921 3.30005 11.5004ZM3.30005 17.0004C3.30005 16.7087 3.41594 16.4288 3.62223 16.2226C3.82852 16.0163 4.10831 15.9004 4.40005 15.9004H17.6C17.8918 15.9004 18.1716 16.0163 18.3779 16.2226C18.5841 16.4288 18.7 16.7087 18.7 17.0004C18.7 17.2921 18.5841 17.572 18.3779 17.7782C18.1716 17.9845 17.8918 18.1004 17.6 18.1004H4.40005C4.10831 18.1004 3.82852 17.9845 3.62223 17.7782C3.41594 17.572 3.30005 17.2921 3.30005 17.0004Z" fill="#333845"/>
</svg>
