<svg width="26" height="26" viewBox="0 0 26 26" fill="none" xmlns="http://www.w3.org/2000/svg">
<g clip-path="url(#clip0_1_9737)">
<path d="M23.6646 2.95898H1.96331C1.05391 2.95898 0.313965 3.69893 0.313965 4.60833V21.0926C0.313965 22.0021 1.05391 22.742 1.96331 22.742H23.6646C24.574 22.742 25.314 22.0021 25.314 21.0926V4.60833C25.314 3.69893 24.5741 2.95898 23.6646 2.95898ZM1.96331 4.37271H23.6646C23.7923 4.37271 23.9002 4.48062 23.9002 4.60833V15.5858L20.1201 10.7345C19.8397 10.3745 19.4291 10.1588 18.9937 10.1428C18.5583 10.1265 18.133 10.3116 17.8267 10.65L12.9221 16.0704C12.804 16.2009 12.542 16.2369 12.393 16.1432L8.36031 13.6036C7.66928 13.1682 6.65791 13.2131 6.00807 13.7077L1.72769 16.9653V4.60833C1.72769 4.48062 1.8356 4.37271 1.96331 4.37271ZM23.6646 21.3282H1.96331C1.8356 21.3282 1.72769 21.2203 1.72769 21.0926V18.7419L6.86431 14.8327C7.04272 14.6969 7.41755 14.6804 7.60708 14.7998L11.6398 17.3394C12.3687 17.7985 13.3924 17.6577 13.9704 17.0189L18.875 11.5985C18.9044 11.566 18.9254 11.5561 18.9417 11.5555C18.9541 11.5559 18.978 11.5687 19.005 11.6033L23.9002 17.8857V21.0925C23.9002 21.2203 23.7923 21.3282 23.6646 21.3282Z" fill="#333845"/>
<path d="M10.7606 12.5291C12.1413 12.5291 13.2644 11.4059 13.2644 10.0253C13.2644 8.64464 12.1412 7.52148 10.7606 7.52148C9.37999 7.52148 8.25684 8.64473 8.25684 10.0253C8.25684 11.4058 9.37999 12.5291 10.7606 12.5291ZM10.7606 8.93511C11.3617 8.93511 11.8507 9.42407 11.8507 10.0252C11.8507 10.6263 11.3617 11.1153 10.7606 11.1153C10.1595 11.1153 9.67056 10.6263 9.67056 10.0252C9.67056 9.42417 10.1595 8.93511 10.7606 8.93511Z" fill="#333845"/>
</g>
<defs>
<clipPath id="clip0_1_9737">
<rect width="25" height="25" fill="white" transform="translate(0.313965 0.349609)"/>
</clipPath>
</defs>
</svg>
