<svg width="25" height="25" viewBox="0 0 25 25" fill="none" xmlns="http://www.w3.org/2000/svg">
<path d="M12.8863 23.5565C12.6944 23.5565 12.5026 23.4835 12.3561 23.3375L6.32938 17.3332C2.71378 13.7311 2.71378 7.87047 6.32938 4.26831C9.9446 0.665773 15.8281 0.665773 19.4434 4.26831C23.059 7.87047 23.059 13.7311 19.4434 17.3332L13.4167 23.3375C13.2701 23.4835 13.0783 23.5565 12.8863 23.5565ZM12.8863 3.06029C10.896 3.06029 8.90525 3.8152 7.38988 5.32494C4.3595 8.34442 4.3595 13.2571 7.38988 16.2766L12.8863 21.7526L18.3828 16.2766C21.4132 13.2571 21.4132 8.34442 18.3828 5.32494C16.8674 3.8152 14.8767 3.06029 12.8863 3.06029Z" fill="#333845"/>
<path d="M12.8862 14.4838C10.8186 14.4838 9.13623 12.8077 9.13623 10.7478C9.13623 8.68786 10.8186 7.01172 12.8862 7.01172C14.9538 7.01172 16.6362 8.68786 16.6362 10.7478C16.6362 12.8077 14.9538 14.4838 12.8862 14.4838ZM12.8862 8.50614C11.6455 8.50614 10.6362 9.51167 10.6362 10.7478C10.6362 11.9839 11.6455 12.9894 12.8862 12.9894C14.127 12.9894 15.1362 11.9839 15.1362 10.7478C15.1362 9.51167 14.127 8.50614 12.8862 8.50614Z" fill="#333845"/>
</svg>
