<svg width="29" height="29" viewBox="0 0 29 29" fill="none" xmlns="http://www.w3.org/2000/svg">
<path d="M21.0833 27.0996H7.43335C4.54585 27.0996 2.18335 24.7371 2.18335 21.8496V21.6746L2.70835 7.67461C2.79585 4.78711 5.15835 2.59961 7.95835 2.59961H20.5583C23.3583 2.59961 25.7208 4.78711 25.8083 7.67461L26.3333 21.6746C26.4208 23.0746 25.8958 24.3871 24.9333 25.4371C23.9708 26.4871 22.6583 27.0996 21.2583 27.0996C21.2583 27.0996 21.1708 27.0996 21.0833 27.0996ZM7.95835 4.34961C6.03335 4.34961 4.54585 5.83711 4.45835 7.67461L3.93335 21.8496C3.93335 23.7746 5.50835 25.3496 7.43335 25.3496H21.2583C22.2208 25.3496 23.0958 24.9121 23.7083 24.2121C24.3208 23.5121 24.6708 22.6371 24.6708 21.6746L24.1458 7.67461C24.0583 5.74961 22.5708 4.34961 20.6458 4.34961H7.95835Z" fill="#333845"/>
<path d="M14.2583 13.0996C10.8458 13.0996 8.1333 10.3871 8.1333 6.97461C8.1333 6.44961 8.4833 6.09961 9.0083 6.09961C9.5333 6.09961 9.8833 6.44961 9.8833 6.97461C9.8833 9.42461 11.8083 11.3496 14.2583 11.3496C16.7083 11.3496 18.6333 9.42461 18.6333 6.97461C18.6333 6.44961 18.9833 6.09961 19.5083 6.09961C20.0333 6.09961 20.3833 6.44961 20.3833 6.97461C20.3833 10.3871 17.6708 13.0996 14.2583 13.0996Z" fill="#333845"/>
</svg>
