<svg width="30" height="29" viewBox="0 0 30 29" fill="none" xmlns="http://www.w3.org/2000/svg">
<path d="M15.3862 1.83008C8.38998 1.83008 2.69873 7.50017 2.69873 14.4704C2.69873 21.4407 8.38998 27.1107 15.3862 27.1107C22.3825 27.1107 28.0737 21.4407 28.0737 14.4704C28.0737 7.50017 22.3825 1.83008 15.3862 1.83008ZM15.3862 25.305C9.38686 25.305 4.51123 20.4475 4.51123 14.4704C4.51123 8.49334 9.38686 3.63584 15.3862 3.63584C21.3856 3.63584 26.2612 8.49334 26.2612 14.4704C26.2612 20.4475 21.3856 25.305 15.3862 25.305Z" fill="#333845"/>
<path d="M21.9295 12.1418L17.9691 11.573L16.202 7.99758C15.8938 7.38362 14.8788 7.38362 14.5707 7.99758L12.8035 11.573L8.84321 12.1418C8.5078 12.196 8.21789 12.4307 8.11821 12.7558C8.00946 13.0808 8.10008 13.442 8.34477 13.6857L11.2085 16.4666L10.5288 20.3941C10.4745 20.7282 10.6104 21.0713 10.8913 21.279C11.1723 21.4776 11.5438 21.5047 11.8429 21.3422L15.3863 19.4913L18.9298 21.3422C19.0566 21.4144 19.2016 21.4505 19.3466 21.4505C19.537 21.4505 19.7273 21.3873 19.8813 21.279C20.1623 21.0713 20.2982 20.7282 20.2438 20.3941L19.5641 16.4666L22.4279 13.6857C22.6726 13.442 22.7632 13.0808 22.6545 12.7558C22.5548 12.4307 22.2648 12.196 21.9295 12.1418ZM17.9601 15.5005C17.7425 15.7082 17.652 16.0061 17.6973 16.3041L18.1413 18.8954L15.8032 17.6674C15.6763 17.6042 15.5313 17.5681 15.3863 17.5681C15.2413 17.5681 15.0963 17.6042 14.9695 17.6674L12.6313 18.8954L13.0754 16.3041C13.1207 16.0061 13.0301 15.7082 12.8126 15.5005L10.9276 13.6677L13.5376 13.2885C13.8276 13.2433 14.0904 13.0627 14.2173 12.7919L15.3863 10.4354L16.5554 12.7919C16.6823 13.0627 16.9451 13.2433 17.2351 13.2885L19.8451 13.6677L17.9601 15.5005Z" fill="#333845"/>
</svg>
