<svg width="29" height="29" viewBox="0 0 29 29" fill="none" xmlns="http://www.w3.org/2000/svg">
<g clip-path="url(#clip0_1_9672)">
<path d="M17.5282 1.93945H14.2581V3.98323H16.5062V7.83236C16.5062 11.2131 13.7556 13.9638 10.3748 13.9638C6.99405 13.9638 4.24349 11.2132 4.24349 7.83241V3.98323H6.42355V1.93945H3.2216C2.65717 1.93945 2.19971 2.39691 2.19971 2.96134V7.83241C2.19971 12.3404 5.86694 16.0076 10.3749 16.0076C14.8828 16.0076 18.5501 12.3404 18.5501 7.83241V2.96134C18.5501 2.39691 18.0926 1.93945 17.5282 1.93945Z" fill="#333845"/>
<path d="M21.5135 16.8589V21.6959C21.5135 24.5133 19.2214 26.8055 16.404 26.8055C13.5866 26.8055 11.2945 24.5133 11.2945 21.6959V15.0195H9.25073V21.6959C9.25073 25.6401 12.4595 28.8492 16.404 28.8492C20.3482 28.8492 23.5573 25.6401 23.5573 21.6959V16.8589H21.5135Z" fill="#333845"/>
<path d="M22.5358 10.252C20.4504 10.252 18.7544 11.948 18.7544 14.033C18.7544 16.1177 20.4504 17.814 22.5354 17.814C24.6204 17.814 26.3165 16.1177 26.3168 14.033C26.3167 11.948 24.6204 10.252 22.5358 10.252ZM22.5354 15.7702C21.5773 15.7702 20.7978 14.9909 20.7978 14.033C20.7978 13.0752 21.5772 12.2958 22.5354 12.2958C23.4933 12.2958 24.2726 13.0752 24.2726 14.033C24.2726 14.9909 23.4933 15.7702 22.5354 15.7702Z" fill="#333845"/>
<path d="M6.38957 0.849609C5.82514 0.849609 5.36768 1.30707 5.36768 1.8715V4.05156C5.36768 4.61599 5.82514 5.07345 6.38957 5.07345C6.954 5.07345 7.41146 4.61599 7.41146 4.05156V1.8715C7.41146 1.30707 6.954 0.849609 6.38957 0.849609Z" fill="#333845"/>
<path d="M14.2922 0.849609C13.7277 0.849609 13.2703 1.30707 13.2703 1.8715V4.05156C13.2703 4.61599 13.7277 5.07345 14.2922 5.07345C14.8566 5.07345 15.314 4.61599 15.314 4.05156V1.8715C15.314 1.30707 14.8566 0.849609 14.2922 0.849609Z" fill="#333845"/>
</g>
<defs>
<clipPath id="clip0_1_9672">
<rect width="28" height="28" fill="white" transform="translate(0.258301 0.849609)"/>
</clipPath>
</defs>
</svg>
