<svg width="19" height="19" viewBox="0 0 19 19" fill="none" xmlns="http://www.w3.org/2000/svg">
<g clip-path="url(#clip0_1_9496)">
<path d="M17.9498 13.4295C17.9283 13.3833 17.9083 13.3449 17.8897 13.3141C17.5819 12.7598 16.9937 12.0794 16.1256 11.2727L16.1072 11.2543L16.098 11.2452L16.0888 11.2359H16.0794C15.6854 10.8603 15.4359 10.6078 15.3314 10.4784C15.1402 10.2321 15.0974 9.98281 15.2019 9.73019C15.2757 9.53933 15.553 9.13625 16.0331 8.5204C16.2857 8.19402 16.4857 7.93244 16.6334 7.73536C17.6988 6.31908 18.1606 5.41405 18.0189 5.01993L17.9639 4.92783C17.9269 4.87239 17.8315 4.82166 17.6777 4.7754C17.5236 4.72924 17.3266 4.7216 17.0864 4.75237L14.4265 4.77074C14.3834 4.75547 14.3219 4.7569 14.2417 4.7754C14.1616 4.7939 14.1216 4.80319 14.1216 4.80319L14.0753 4.82632L14.0385 4.85411C14.0077 4.87248 13.9739 4.9048 13.9369 4.951C13.9001 4.99703 13.8694 5.05105 13.8448 5.11262C13.5552 5.85767 13.2259 6.55038 12.8564 7.19072C12.6285 7.57254 12.4193 7.90345 12.2282 8.18364C12.0374 8.46372 11.8773 8.67008 11.7481 8.80236C11.6187 8.93477 11.5019 9.04085 11.397 9.12098C11.2923 9.20114 11.2123 9.23501 11.157 9.22262C11.1015 9.21023 11.0493 9.19794 10.9998 9.18565C10.9137 9.1302 10.8444 9.05479 10.7921 8.95936C10.7397 8.86392 10.7043 8.74381 10.6859 8.59911C10.6675 8.45431 10.6566 8.32976 10.6535 8.22504C10.6506 8.12046 10.6519 7.97252 10.6582 7.78166C10.6646 7.59069 10.6675 7.46149 10.6675 7.39375C10.6675 7.15973 10.672 6.90575 10.6812 6.63174C10.6905 6.35774 10.698 6.14064 10.7044 5.9807C10.7106 5.8206 10.7135 5.65121 10.7135 5.47264C10.7135 5.29407 10.7027 5.15402 10.6812 5.05238C10.66 4.95087 10.6274 4.85233 10.5845 4.7568C10.5413 4.66137 10.4781 4.58754 10.3951 4.53514C10.312 4.48279 10.2087 4.44126 10.0857 4.4104C9.75935 4.33654 9.34375 4.29659 8.83873 4.29038C7.69351 4.27808 6.95764 4.35204 6.6313 4.51214C6.50199 4.57978 6.38498 4.6722 6.28036 4.78912C6.1695 4.92463 6.15404 4.99858 6.23407 5.01075C6.60357 5.0661 6.86516 5.19851 7.01911 5.40784L7.07459 5.51877C7.11774 5.59881 7.16083 5.7405 7.20396 5.94366C7.24701 6.14681 7.2748 6.37155 7.28703 6.61773C7.31776 7.0673 7.31776 7.45214 7.28703 7.77227C7.2562 8.09254 7.22709 8.34186 7.1993 8.52043C7.17151 8.699 7.12997 8.84371 7.07459 8.9545C7.01911 9.06534 6.9822 9.13308 6.96369 9.15766C6.94522 9.18225 6.92982 9.19774 6.91759 9.20383C6.83756 9.23449 6.75432 9.25012 6.66818 9.25012C6.5819 9.25012 6.47728 9.20696 6.35415 9.12072C6.23106 9.03447 6.10331 8.91601 5.9709 8.76513C5.83849 8.61421 5.68917 8.40333 5.52286 8.13243C5.35667 7.86153 5.18425 7.54136 5.00568 7.17192L4.85793 6.904C4.76557 6.73164 4.63941 6.48067 4.47931 6.15131C4.31911 5.82183 4.17752 5.50311 4.05442 5.19524C4.00522 5.06594 3.9313 4.9675 3.83279 4.89975L3.78657 4.87197C3.75583 4.84738 3.7065 4.82127 3.63882 4.79345C3.57105 4.76566 3.50033 4.74574 3.42638 4.73347L0.895672 4.75185C0.637066 4.75185 0.4616 4.81044 0.369208 4.92745L0.332232 4.9828C0.31376 5.01363 0.304443 5.06286 0.304443 5.13064C0.304443 5.19838 0.322915 5.28152 0.359891 5.37996C0.729328 6.24823 1.13108 7.08561 1.56516 7.89223C1.99923 8.69884 2.37643 9.34859 2.69653 9.84089C3.0167 10.3336 3.34305 10.7985 3.67557 11.2356C4.0081 11.6728 4.22821 11.953 4.3359 12.0761C4.44372 12.1994 4.52842 12.2916 4.58998 12.3531L4.82093 12.5748C4.9687 12.7226 5.1857 12.8996 5.47203 13.1058C5.75843 13.3122 6.07549 13.5153 6.42338 13.7156C6.77134 13.9156 7.17614 14.0787 7.638 14.2049C8.09979 14.3313 8.54926 14.382 8.98647 14.3575H10.0487C10.2641 14.3389 10.4273 14.2712 10.5382 14.1543L10.575 14.108C10.5997 14.0712 10.6228 14.0141 10.6442 13.9373C10.6658 13.8603 10.6765 13.7755 10.6765 13.6833C10.6702 13.4186 10.6903 13.18 10.7364 12.9676C10.7824 12.7552 10.8349 12.5951 10.8936 12.4873C10.9523 12.3796 11.0184 12.2887 11.0921 12.215C11.1659 12.1411 11.2185 12.0964 11.2494 12.081C11.2801 12.0655 11.3045 12.055 11.323 12.0487C11.4708 11.9994 11.6447 12.0471 11.845 12.192C12.0452 12.3367 12.2329 12.5153 12.4085 12.7277C12.584 12.9402 12.7948 13.1787 13.0411 13.4434C13.2875 13.7082 13.503 13.9051 13.6876 14.0346L13.8723 14.1454C13.9956 14.2193 14.1557 14.2871 14.3528 14.3486C14.5495 14.4102 14.7218 14.4256 14.8698 14.3948L17.2342 14.3579C17.4681 14.3579 17.65 14.3192 17.7791 14.2424C17.9084 14.1654 17.9853 14.0806 18.0101 13.9884C18.0348 13.8961 18.0361 13.7913 18.0147 13.6742C17.9928 13.5574 17.9713 13.4757 17.9498 13.4295Z" fill="#EEEEEE"/>
</g>
<defs>
<clipPath id="clip0_1_9496">
<rect width="17.7394" height="17.7394" fill="white" transform="translate(0.304443 0.479492)"/>
</clipPath>
</defs>
</svg>
