<svg width="17" height="17" viewBox="0 0 17 17" fill="none" xmlns="http://www.w3.org/2000/svg">
<g clip-path="url(#clip0_1_9501)">
<path d="M8.21828 0.362305H8.21421C3.73123 0.362305 0.0856934 4.00886 0.0856934 8.49286C0.0856934 10.2714 0.658897 11.9199 1.63355 13.2584L0.620277 16.2789L3.74546 15.2798C5.0311 16.1315 6.56473 16.6234 8.21828 16.6234C12.7013 16.6234 16.3468 12.9758 16.3468 8.49286C16.3468 4.00987 12.7013 0.362305 8.21828 0.362305Z" fill="#EEEEEE"/>
<path d="M12.9493 11.8437C12.7531 12.3976 11.9746 12.857 11.3537 12.9911C10.9288 13.0816 10.3739 13.1537 8.50593 12.3793C6.11657 11.3894 4.57786 8.96142 4.45793 8.80389C4.34309 8.64636 3.49243 7.51825 3.49243 6.35151C3.49243 5.18478 4.08495 4.61665 4.32378 4.37274C4.51993 4.17252 4.84414 4.08105 5.15513 4.08105C5.25575 4.08105 5.3462 4.08614 5.4275 4.0902C5.66634 4.10036 5.78626 4.11459 5.94379 4.49165C6.13994 4.96424 6.61761 6.13097 6.67453 6.2509C6.73246 6.37082 6.79039 6.53343 6.70908 6.69096C6.63286 6.85357 6.56578 6.92573 6.44585 7.06395C6.32593 7.20217 6.2121 7.30787 6.09218 7.45625C5.98241 7.58532 5.85842 7.72354 5.99664 7.96238C6.13486 8.19613 6.61253 8.97565 7.31582 9.6017C8.2234 10.4097 8.95921 10.6678 9.22244 10.7776C9.41859 10.8589 9.65234 10.8396 9.79564 10.6871C9.97756 10.491 10.2022 10.1658 10.4308 9.84562C10.5935 9.61593 10.7987 9.58747 11.0142 9.66878C11.2337 9.745 12.3954 10.3192 12.6342 10.4381C12.8731 10.5581 13.0306 10.615 13.0885 10.7156C13.1454 10.8162 13.1454 11.2888 12.9493 11.8437Z" fill="#333C46"/>
</g>
<defs>
<clipPath id="clip0_1_9501">
<rect width="16.2611" height="16.2611" fill="white" transform="translate(0.0856934 0.362305)"/>
</clipPath>
</defs>
</svg>
